HIERARCHY
ROOT pelvis
{
	OFFSET 0.00 0.00 0.00
	CHANNELS 6 Xposition Yposition Zposition Xrotation Yrotation Zrotation
	JOINT lfemur
	{
		OFFSET 0.00000 4.04436 0.00000
		CHANNELS 3 Xrotation Yrotation Zrotation
		JOINT ltibia
		{
			OFFSET 0.00000 0.00000 -16.29375
			CHANNELS 3 Xrotation Yrotation Zrotation
			JOINT lfoot
			{
				OFFSET 0.00000 0.00000 -15.07135
				CHANNELS 3 Xrotation Yrotation Zrotation
				JOINT ltoes
				{
					OFFSET 4.08523 0.00000 0.00000
					CHANNELS 3 Xrotation Yrotation Zrotation
				}
			}
		}
	}
	JOINT rfemur
	{
		OFFSET 0.00000 -4.04436 0.00000
		CHANNELS 3 Xrotation Yrotation Zrotation
		JOINT rtibia
		{
			OFFSET 0.00000 0.00000 -16.29375
			CHANNELS 3 Xrotation Yrotation Zrotation
			JOINT rfoot
			{
				OFFSET 0.00000 0.00000 -15.07135
				CHANNELS 3 Xrotation Yrotation Zrotation
				JOINT rtoes
				{
					OFFSET 4.08523 0.00000 0.00000
					CHANNELS 3 Xrotation Yrotation Zrotation
				}
			}
		}
	}
	JOINT thorax
	{
		OFFSET -1.96850 0.00000 3.38723
		CHANNELS 6 Xposition Yposition Zposition Xrotation Yrotation Zrotation
		JOINT head
		{
			OFFSET 0.00000 0.00000 16.93583
			CHANNELS 6 Xposition Yposition Zposition Xrotation Yrotation Zrotation
		}
		JOINT lclavicle
		{
			OFFSET 0.00000 0.00000 14.46426
			CHANNELS 3 Xrotation Yrotation Zrotation
			JOINT lhumerus
			{
				OFFSET 0.00000 6.07503 0.73740
				CHANNELS 3 Xrotation Yrotation Zrotation
				JOINT lradius
				{
					OFFSET 0.00000 0.00000 -10.44175
					CHANNELS 3 Xrotation Yrotation Zrotation
					JOINT lhand
					{
						OFFSET 0.00000 0.00000 -9.67100
						CHANNELS 3 Xrotation Yrotation Zrotation
					}
				}
			}
		}
		JOINT rclavicle
		{
			OFFSET 0.00000 0.00000 14.46426
			CHANNELS 3 Xrotation Yrotation Zrotation
			JOINT rhumerus
			{
				OFFSET 0.00000 -6.07503 0.73740
				CHANNELS 3 Xrotation Yrotation Zrotation
				JOINT rradius
				{
					OFFSET 0.00000 0.00000 -10.44175
					CHANNELS 3 Xrotation Yrotation Zrotation
					JOINT rhand
					{
						OFFSET 0.00000 0.00000 -9.67100
						CHANNELS 3 Xrotation Yrotation Zrotation
					}
				}
			}
		}
	}
}
MOTION
Frames: 9
Frame Time: 0.008333
 39.7734 13.7306 33.1733 2.8725 0.1302 -89.9971 4.3054 -8.5015 10.8665 -0.0000 15.9032 0.0000 0.0000 17.1197 2.2690 0.0000 -24.6273 -0.0000 -1.4513 -2.2353 -4.8372 -0.0000 10.5432 0.0000 0.0000 13.2382 -14.4921 0.0000 -23.2642 0.0000 36.8855 15.1251 37.5750 -13.3491 3.9323 28.2642 41.0105 13.2533 53.5188 -15.6258 -22.6499 -16.7860 -8.1522 0.0000 -5.4504 38.7008 -22.4457 41.3854 -0.0000 -66.0856 -19.5694 5.4434 3.5578 0.0000 4.1421 0.0000 17.4929 -12.2604 -28.4583 10.5729 180.0000 -88.9937 -172.0961 2.7166 -11.5612 0.0000
 39.7516 13.7543 33.1513 2.8536 0.0334 -89.7984 4.2495 -8.6847 10.6934 -0.0000 16.1870 0.0000 0.0000 16.9768 2.2679 0.0000 -24.7614 -0.0000 -1.5009 -2.6648 -4.5166 -0.0000 11.4837 0.0000 0.0000 12.6930 -15.0132 -0.0000 -23.2328 -0.0000 36.8890 15.1490 37.5507 -13.1538 4.0097 27.8649 40.9334 13.2765 53.5161 -15.6219 -22.6042 -16.3662 -8.4484 0.0000 -5.3051 37.5591 -20.7205 40.0003 0.0000 -68.4253 -19.0703 5.6782 3.5858 0.0000 4.4247 -0.0000 17.1691 -12.5322 -26.8139 12.1833 180.0000 -87.4878 -171.9120 2.9963 -11.6106 0.0000
 39.7309 13.7799 33.1232 2.8339 -0.0784 -89.6735 4.1805 -8.9234 10.4658 -0.0000 16.6099 -0.0000 -0.0000 16.8001 2.4183 0.0000 -25.0213 -0.0000 -1.5453 -3.1400 -3.9836 -0.0000 12.4975 0.0000 0.0000 12.1120 -15.6716 0.0000 -23.2296 -0.0000 36.8992 15.1744 37.5211 -12.9361 4.0538 27.4204 40.8554 13.2968 53.5083 -15.5983 -22.5708 -15.8615 -8.7963 0.0000 -5.3342 36.5427 -18.6592 38.7862 0.0000 -70.9121 -18.4965 5.9167 3.6225 0.0000 4.7578 -0.0000 17.0077 -12.8794 -25.0671 13.5741 180.0000 -86.0124 -171.7115 3.5505 -11.7348 -0.0000
 39.7092 13.8084 33.0862 2.6879 -0.1631 -89.4619 4.1610 -9.1798 10.2085 -0.0000 17.3001 0.0000 0.0000 16.3984 2.4559 0.0000 -25.0188 0.0000 -1.5927 -3.5873 -3.8343 -0.0000 13.7269 0.0000 0.0000 11.3763 -16.0746 0.0000 -23.0450 -0.0000 36.9179 15.2238 37.4816 -12.6910 4.3793 26.9471 40.7850 13.3101 53.4912 -15.5912 -22.7272 -15.4104 -9.0937 0.0000 -4.8479 35.2249 -17.3865 37.3383 0.0000 -73.0039 -18.3019 6.2513 3.7027 -0.0000 5.0361 0.0000 16.3878 -13.0901 -23.6399 15.2737 180.0000 -84.7252 -171.6917 3.9370 -11.9514 -0.0000
 39.6917 13.8398 33.0458 2.5650 -0.2805 -89.3035 4.0821 -9.4906 9.7966 -0.0000 18.0437 0.0000 0.0000 16.0967 2.6962 0.0000 -25.2578 0.0000 -1.6611 -4.0797 -3.5053 -0.0000 14.9788 0.0000 0.0000 10.6427 -16.5730 0.0000 -22.9818 0.0000 36.9488 15.2586 37.4338 -12.3837 4.5393 26.4147 40.7012 13.3246 53.4745 -15.6472 -22.6888 -14.8773 -9.5251 0.0000 -5.0280 34.3166 -15.1429 36.2865 0.0000 -75.4603 -17.6238 6.4226 3.7216 0.0000 5.3714 0.0000 16.3002 -13.6741 -21.7459 16.4344 180.0000 -83.1990 -171.8827 4.2545 -12.1145 0.0000
 39.6717 13.8742 32.9934 2.3390 -0.3728 -89.1569 4.0721 -9.8590 9.4748 -0.0000 19.1245 0.0000 0.0000 15.5735 2.8568 0.0000 -25.2889 -0.0000 -1.7241 -4.6002 -3.3636 -0.0000 16.4883 0.0000 0.0000 9.7832 -16.9138 0.0000 -22.8182 -0.0000 36.9758 15.3242 37.3798 -12.1129 4.9786 25.9490 40.6330 13.3317 53.4432 -15.6364 -22.9249 -14.4080 -9.8476 0.0000 -4.6124 33.0558 -13.8492 35.0020 0.0000 -77.4403 -17.2584 6.5094 3.7047 0.0000 5.6975 -0.0000 15.6408 -14.0046 -20.3004 17.9061 180.0000 -81.9060 -172.1368 4.4514 -12.2369 0.0000
 39.6563 13.9088 32.9367 2.1287 -0.4940 -89.0329 4.0025 -10.2791 9.0213 -0.0000 20.2654 -0.0000 0.0000 15.1368 3.1425 0.0000 -25.5557 0.0000 -1.8183 -5.1476 -3.1710 -0.0000 18.0074 -0.0000 -0.0000 8.9648 -17.2423 0.0000 -22.7557 0.0000 37.0261 15.3766 37.3150 -11.7466 5.2752 25.3721 40.5516 13.3379 53.4107 -15.6911 -22.9897 -13.7992 -10.3537 0.0000 -4.8142 32.1743 -11.6289 34.0929 0.0000 -79.7961 -16.4163 6.4989 3.7437 -0.0000 6.0788 -0.0000 15.4721 -14.6770 -18.4098 18.8791 180.0000 -80.4090 -172.4711 4.7001 -12.4618 0.0000
 39.6392 13.9494 32.8668 1.8328 -0.5896 -88.9460 3.9781 -10.7617 8.5736 -0.0000 21.7065 0.0000 0.0000 14.5590 3.4576 0.0000 -25.7655 -0.0000 -1.9018 -5.7469 -3.0866 -0.0000 19.7784 0.0000 0.0000 8.0679 -17.4316 0.0000 -22.7055 0.0000 37.0629 15.4582 37.2436 -11.4490 5.8194 24.9253 40.4840 13.3409 53.3641 -15.6865 -23.2854 -13.3642 -10.7053 0.0000 -4.4839 30.9517 -10.3307 32.8827 0.0000 -81.6571 -15.9085 6.6014 3.6059 0.0000 6.4488 -0.0000 14.8044 -15.1110 -16.9185 19.9835 180.0000 -79.0682 -172.7476 5.0089 -12.5391 0.0000
 39.6271 13.9838 32.7907 1.5575 -0.7134 -88.8748 3.9207 -11.2911 8.1460 -0.0000 23.2109 -0.0000 0.0000 14.0320 3.7460 0.0000 -26.0140 -0.0000 -2.0400 -6.3538 -3.0646 -0.0000 21.5267 -0.0000 0.0000 7.1982 -17.5459 0.0000 -22.6675 -0.0000 37.1306 15.5263 37.1583 -11.0333 6.2261 24.3441 40.4034 13.3399 53.3092 -15.7516 -23.4406 -12.7387 -11.2850 0.0000 -4.7237 30.1044 -8.1753 32.0530 0.0000 -83.8517 -15.0170 6.6568 3.5459 0.0000 6.8766 -0.0000 14.5549 -15.7822 -15.0330 20.6531 180.0000 -77.5630 -173.0757 5.1739 -12.7643 0.0000
